<?xml version="1.0" encoding="UTF-8" standalone="no"?>
<!-- Created with Inkscape (http://www.inkscape.org/) -->

<svg
   xmlns:dc="http://purl.org/dc/elements/1.1/"
   xmlns:cc="http://creativecommons.org/ns#"
   xmlns:rdf="http://www.w3.org/1999/02/22-rdf-syntax-ns#"
   xmlns:svg="http://www.w3.org/2000/svg"
   xmlns="http://www.w3.org/2000/svg"
   xmlns:sodipodi="http://sodipodi.sourceforge.net/DTD/sodipodi-0.dtd"
   xmlns:inkscape="http://www.inkscape.org/namespaces/inkscape"
   version="1.1"
   id="svg10"
   width="446.39999"
   height="289.60001"
   viewBox="0 0 446.39999 289.60001"
   sodipodi:docname="Imagotipo-test.svg"
   inkscape:version="0.92.4 (5da689c313, 2019-01-14)">
  <metadata
     id="metadata16">
    <rdf:RDF>
      <cc:Work
         rdf:about="">
        <dc:format>image/svg+xml</dc:format>
        <dc:type
           rdf:resource="http://purl.org/dc/dcmitype/StillImage" />
        <dc:title></dc:title>
      </cc:Work>
    </rdf:RDF>
  </metadata>
  <defs
     id="defs14" />
  <sodipodi:namedview
     pagecolor="#ffffff"
     bordercolor="#666666"
     borderopacity="1"
     objecttolerance="10"
     gridtolerance="10"
     guidetolerance="10"
     inkscape:pageopacity="0"
     inkscape:pageshadow="2"
     inkscape:window-width="1920"
     inkscape:window-height="991"
     id="namedview12"
     showgrid="false"
     inkscape:zoom="2.7555248"
     inkscape:cx="278.90626"
     inkscape:cy="130.28371"
     inkscape:window-x="-9"
     inkscape:window-y="-9"
     inkscape:window-maximized="1"
     inkscape:current-layer="g20" />
  <g
     id="g20"
     transform="translate(2.1774436,-3.2661659)">
    <path
       style="fill:#a4d4fb;stroke-width:0.80000001"
       d="m 116.98789,268.60001 c -0.44442,-0.55 -8.01682,-18.28 -16.82756,-39.4 C 76.252147,171.89033 36.809436,77.494079 24.455842,48.020279 18.466841,33.731431 13.742932,21.58143 13.958267,21.020278 c 0.306644,-0.799101 6.163325,-1.017621 27.016624,-1.008027 14.643809,0.0067 27.050587,0.282829 27.570617,0.613537 0.52003,0.330707 5.861685,12.655195 11.870346,27.38775 C 86.42451,62.746093 99.99231,95.860003 110.56652,121.6 c 10.57421,25.74001 21.80242,53.07329 24.95159,60.74065 3.14916,7.66736 6.08515,14.06044 6.52442,14.20687 0.43927,0.14642 6.43739,-14.40687 13.32916,-32.34064 21.7168,-56.5115 52.01627,-133.452755 54.89843,-139.406879 l 2.12988,-4.4 63.99999,-0.232821 c 78.35343,-0.285037 81.99995,0.01828 99.48122,8.274839 9.70117,4.58195 16.13717,9.233645 23.11844,16.709118 13.51858,14.475571 20.40232,33.716686 20.48146,57.248863 0.0766,22.76397 -6.62173,41.62604 -19.80485,55.7696 -8.89716,9.54534 -16.82176,14.53635 -29.67221,18.6879 -2.86223,0.92469 -5.20406,2.01099 -5.20406,2.41402 0,0.40301 7.80944,13.0618 17.35431,28.13062 9.54488,15.06883 21.10893,33.33787 25.69791,40.59787 4.58897,7.26 9.01953,14.15558 9.84568,15.3235 0.82616,1.16792 1.5021,2.87792 1.5021,3.8 0,1.66912 -0.11963,1.6765 -27.19745,1.6765 H 364.8051 l -5.24812,-8.2 c -2.88647,-4.51 -13.17713,-20.62 -22.86814,-35.8 -9.69102,-15.18 -19.57286,-30.57 -21.95966,-34.2 l -4.33963,-6.6 h -27.99478 c -26.71187,0 -27.99478,-0.0679 -27.99478,-1.48104 0,-1.49995 16.29801,-38.07577 17.78771,-39.91897 0.62138,-0.76884 7.96361,-1 31.76333,-1 33.3251,0 37.33484,-0.35343 45.37631,-3.9996 12.65691,-5.73892 19.65305,-19.87557 18.4279,-37.23607 -1.1517,-16.319863 -8.71144,-27.593356 -21.82622,-32.548474 -4.68455,-1.769952 -5.14619,-1.786895 -49.08188,-1.801306 L 252.49427,66 243.82262,86.400001 C 228.9288,121.4376 180.30058,238.70558 170.17615,264.00001 c -0.96863,2.42 -2.12453,4.66449 -2.56866,4.98775 -0.44412,0.32327 -11.83341,0.59327 -25.30954,0.6 -18.64955,0.009 -24.69504,-0.22661 -25.31006,-0.98775 z M 256.8838,245.89194 c -4.04579,-2.01611 -8.19482,-6.46086 -9.30957,-9.97311 -0.4528,-1.42664 -1.47659,-1.51882 -16.86788,-1.51882 -19.82646,0 -21.90635,-0.6499 -21.90635,-6.84501 0,-1.05278 4.00492,-11.19334 8.89983,-22.53457 4.8949,-11.34123 9.79387,-22.78042 10.88658,-25.42042 3.02494,-7.30823 29.78483,-67.58332 31.52135,-71.00001 l 1.52475,-3 h 25.173 25.17301 l 1.2498,-3 c 1.6443,-3.946965 6.3807,-8.823157 10.37167,-10.677789 4.20411,-1.953688 11.74474,-1.967672 16,-0.02968 3.69991,1.685064 8.85207,7.079344 10.47774,10.970129 1.36314,3.26246 1.45393,9.84468 0.19381,14.05059 -1.31504,4.38923 -5.89669,9.38508 -10.62706,11.58779 -9.12659,4.24984 -19.24394,1.04179 -24.95834,-7.91386 l -1.92241,-3.01282 -21.72525,0.21282 L 269.31323,118 246.65661,169.51683 c -12.46114,28.33425 -22.65662,51.64425 -22.65662,51.8 0,0.15575 5.21076,0.28318 11.57946,0.28318 h 11.57946 l 1.15228,-2.2 c 1.49436,-2.85308 5.74838,-6.83256 9.2888,-8.68933 4.09905,-2.14974 12.95766,-2.01336 17.27575,0.26595 6.80342,3.59121 10.72425,10.15263 10.72425,17.94677 0,5.5979 -1.23484,8.89389 -4.89306,13.06038 -5.57769,6.35263 -15.61379,7.99904 -23.82313,3.90816 z m 14.64508,-12.35332 c 3.64032,-4.32627 2.14087,-9.93505 -3.19876,-11.96518 -3.04877,-1.15914 -7.67963,0.76255 -9.04176,3.7521 -1.48606,3.26156 -1.03577,5.85015 1.4501,8.336 3.35261,3.35263 7.90963,3.30072 10.79042,-0.12292 z m 65.6,-118.4 c 5.33543,-6.3408 -0.94101,-14.84416 -8.59589,-11.64574 -4.28433,1.7901 -5.70837,5.85216 -3.64173,10.38796 1.10311,2.42107 3.42029,3.59445 7.23762,3.66502 2.32476,0.043 3.35608,-0.45355 5,-2.40724 z"
       id="path34"
       inkscape:connector-curvature="0" />
    <path
       style="fill:#79c1fa;stroke-width:0.80000001"
       d="M 117.83731,268.96361 C 116.98818,268.42388 110.88574,254.0813 77.602666,174.40001 49.082584,106.12154 37.548578,78.530928 26.655839,52.529587 19.86552,36.320858 14.424921,22.460858 14.565621,21.729586 c 0.231222,-1.201744 2.757831,-1.349846 26.277539,-1.540302 19.996133,-0.161923 26.330301,0.02333 27.354343,0.8 0.732944,0.555894 7.78699,16.850717 15.675655,36.210718 C 91.76183,76.560003 104.9539,108.78 113.18887,128.8 c 8.23498,20.02001 18.04478,43.87001 21.79958,53.00001 3.7548,9.13 7.08007,16.6 7.3895,16.6 0.64456,0 3.96404,-8.32528 23.92335,-60.00001 13.66079,-35.36783 35.48201,-90.880314 42.70041,-108.62847 2.46405,-6.058449 3.78144,-8.337605 4.99542,-8.642295 0.90684,-0.227603 31.87846,-0.281718 68.82583,-0.120257 64.46734,0.281724 67.46746,0.360246 74.37703,1.94665 13.93099,3.198487 25.29615,8.621207 35.21382,16.801758 21.84456,18.018418 31.70753,53.898993 23.59912,85.851484 -6.39232,25.18992 -22.79443,43.16943 -45.88147,50.29387 -3.00768,0.92815 -5.79866,1.89158 -6.20216,2.14095 -0.9951,0.61501 -1.07724,0.47495 17.09893,29.15632 8.78347,13.86 20.78534,32.79792 26.67085,42.08427 5.8855,9.28635 10.70091,17.3012 10.70091,17.81079 0,0.68766 -6.85722,0.87217 -26.6,0.71572 l -26.6,-0.21078 -6.4,-9.79919 c -3.52,-5.38956 -10.11467,-15.64956 -14.65483,-22.8 -22.88366,-36.04026 -32.35481,-50.63751 -33.20679,-51.17944 -0.5161,-0.32828 -13.26838,-0.60239 -28.33838,-0.60913 -21.38072,-0.01 -27.39976,-0.23192 -27.3989,-1.01224 0.002,-1.16845 15.48886,-35.30243 17.20866,-37.92718 l 1.16496,-1.77795 33.81264,-0.258 c 33.45759,-0.25529 33.86304,-0.27803 38.61264,-2.16529 9.3414,-3.71183 14.98079,-8.85916 18.91355,-17.26327 3.10971,-6.64529 4.15252,-12.95759 3.63585,-22.00832 -0.85785,-15.027565 -7.32556,-26.478085 -18.04469,-31.946576 -7.4565,-3.804025 -10.54511,-4.028999 -55.48627,-4.041597 l -42.18155,-0.01182 -1.1756,1.8 c -1.88802,2.890825 -29.87507,69.662323 -67.65025,161.400013 -6.25073,15.18 -12.23033,29.5335 -13.28799,31.89667 -1.05768,2.36318 -1.92304,5.14051 -1.92304,6.17186 0,1.03517 -0.69318,2.24615 -1.54741,2.70333 -1.80745,0.96731 -47.91363,1.14621 -49.41528,0.19173 z m 140.16268,-23.28029 c -3.60266,-1.66798 -6.7141,-4.74137 -8.9933,-8.88331 l -1.54076,-2.8 -17.25114,-0.4 c -15.51079,-0.35965 -17.42082,-0.55375 -18.93297,-1.92399 -0.92501,-0.8382 -1.68182,-2.48414 -1.68182,-3.65765 0,-2.71484 48.10743,-114.25406 51.67336,-119.80698 1.1437,-1.78099 1.25529,-1.78952 26.12597,-2 L 312.37669,106 l 1.87235,-3.6 c 3.94778,-7.590461 9.3591,-11.157781 16.95095,-11.174613 11.53655,-0.0256 19.88979,9.097043 19.04346,20.797453 -0.44444,6.14424 -3.69737,11.47649 -9.00187,14.75601 -3.39344,2.09801 -4.67191,2.42115 -9.57885,2.42115 -7.27615,0 -12.24511,-2.65668 -15.86727,-8.48351 L 313.36083,116.8 h -21.86197 c -21.79788,0 -21.86535,0.006 -23.01106,1.8 -0.99149,1.55315 -7.46595,16.04814 -23.67345,53.00001 -2.12288,4.84 -7.85456,17.88851 -12.73706,28.99669 -4.88251,11.10818 -8.8773,20.55818 -8.8773,21 0,0.49628 3.94983,0.80331 10.33457,0.80331 5.68402,0 10.86708,0.20434 11.51793,0.45409 1.26835,0.48672 1.53926,0.23216 5.54489,-5.21041 8.41512,-11.43387 25.85483,-10.08135 32.11991,2.49102 2.73703,5.49251 2.80329,11.49789 0.18828,17.0653 -2.20937,4.70378 -3.67995,6.14303 -8.51996,8.33844 -4.64284,2.10597 -12.00917,2.17109 -16.38562,0.14487 z m 14.07904,-11.36792 c 5.84374,-6.25574 -0.34252,-16.20069 -8.41948,-13.53505 -9.41369,3.1068 -7.31111,15.95109 2.61948,16.00187 2.87263,0.0147 3.88358,-0.41528 5.8,-2.46682 z M 336.0443,117.57629 c 3.54376,-1.89657 5.04901,-8.45934 2.70713,-11.80285 -3.34613,-4.77726 -9.86834,-5.20465 -13.50321,-0.88485 -4.64849,5.52441 -1.13551,13.51141 5.94283,13.51141 1.82277,0 4.00673,-0.37067 4.85325,-0.82371 z"
       id="path32"
       inkscape:connector-curvature="0" />
    <path
       style="fill:#56b2fa;stroke-width:0.80000001"
       d="M 117.83731,268.96361 C 116.98818,268.42388 110.88574,254.0813 77.602666,174.40001 49.082584,106.12154 37.548578,78.530928 26.655839,52.529587 19.86552,36.320858 14.424921,22.460858 14.565621,21.729586 c 0.231222,-1.201744 2.757831,-1.349846 26.277539,-1.540302 19.99755,-0.161935 26.329419,0.02327 27.350849,0.8 0.731021,0.555894 6.238077,13.070717 12.237901,27.810718 10.419848,25.598824 42.72575,104.343948 55.30293,134.800008 3.27065,7.92 6.26368,14.71737 6.65118,15.10528 0.86224,0.86315 0.78736,1.0414 13.73922,-32.70528 14.82599,-38.62981 45.26956,-116.305771 53.4593,-136.400009 l 3.09751,-7.6 64.25897,-0.232807 c 43.47008,-0.157489 66.81909,0.05564 72.17236,0.658795 15.17868,1.710178 28.25507,6.729274 39.66432,15.224312 17.2094,12.813682 26.48667,30.788796 28.96895,56.12867 1.66484,16.995229 -1.16848,33.446709 -8.16699,47.421029 -8.76098,17.49357 -20.83586,28.02188 -38.8764,33.89703 -4.38127,1.42682 -7.19684,2.78065 -7.34744,3.5329 -0.13429,0.6708 6.32972,11.60348 14.36449,24.29485 8.03477,12.69138 20.29465,32.05443 27.24418,43.02901 6.94952,10.97459 12.6355,20.24459 12.6355,20.6 0,0.35542 -11.79,0.64071 -26.2,0.63398 l -26.2,-0.0122 -14.09406,-22.18776 c -31.82867,-50.1067 -37.66512,-59.06941 -39.58454,-60.78776 -2.00024,-1.79071 -2.14875,-1.8 -28.766,-1.8 -19.07595,0 -26.7554,-0.25496 -26.7554,-0.88827 0,-0.48854 3.8399,-9.30854 8.5331,-19.6 l 8.5331,-18.71174 30.8669,-0.0139 c 34.07966,-0.0154 38.09583,-0.42583 47.01476,-4.80541 17.2325,-8.46191 23.71097,-33.96382 13.93512,-54.854339 -1.29042,-2.757552 -3.86791,-6.664576 -5.72775,-8.682272 -4.20352,-4.560244 -12.88115,-8.917982 -19.95523,-10.021095 -3.00097,-0.467964 -22.31691,-0.813431 -45.676,-0.816919 -37.55353,-0.0056 -40.56437,0.09504 -41.69969,1.393957 -1.72279,1.971033 -29.57954,68.239548 -67.17382,159.800008 -7.04581,17.16 -13.65932,33.10024 -14.69668,35.42276 -1.03737,2.32251 -1.66286,4.80458 -1.38998,5.51568 1.1991,3.12481 -1.35502,3.46214 -26.11673,3.44931 -13.0059,-0.006 -24.0803,-0.28761 -24.60978,-0.62415 z m 144.56268,-22.51483 c -5.73718,-1.15305 -10.40702,-4.92976 -13.76279,-11.13059 l -1.36279,-2.51818 h -16.87357 -16.87357 l -2.01332,-2.01332 c -1.46762,-1.46762 -1.86985,-2.49759 -1.484,-3.8 1.01645,-3.43094 19.28248,-45.88131 36.91327,-85.78669 14.07436,-31.85577 14.10994,-31.93454 14.90576,-33 0.56878,-0.76149 6.5908,-1.00292 25.24897,-1.01224 13.47612,-0.006 24.91158,-0.27674 25.41213,-0.6 0.50054,-0.32327 1.50965,-2.02776 2.24244,-3.78776 2.91364,-6.997885 8.78769,-10.809757 16.6156,-10.782429 6.0738,0.0212 10.59055,1.8784 13.7862,5.668592 3.6506,4.329797 4.63914,7.545707 4.31184,14.027207 -0.24611,4.87369 -0.67319,6.32975 -2.7091,9.23622 -5.26816,7.52086 -15.34411,10.01224 -23.59116,5.83314 -3.46624,-1.75648 -8.00308,-6.49422 -8.9558,-9.35241 -0.45293,-1.3588 -44.55879,-1.04516 -45.84345,0.326 -0.53781,0.57403 -6.06032,12.65368 -12.27225,26.84368 -6.21192,14.19001 -16.35527,37.32062 -22.54077,51.40137 -6.18551,14.08076 -11.02426,25.96076 -10.75279,26.40001 0.29352,0.47492 5.43053,0.79863 12.67388,0.79863 h 12.1803 l 1.48789,-2.6 c 3.66934,-6.41202 9.91332,-10.18437 16.85708,-10.18437 14.15516,0 22.72628,14.9772 16.00704,27.97075 -3.04482,5.88804 -12.03405,9.5844 -19.60704,8.06239 z m 8.02619,-10.06232 c 2.52812,-1.30733 4.77381,-4.87615 4.77381,-7.58645 0,-2.34826 -2.05593,-6.06829 -4.17343,-7.55144 -4.09677,-2.86948 -11.14453,-0.6763 -13.13495,4.08745 -1.58925,3.80359 -0.78097,6.86859 2.59242,9.83046 3.12399,2.7429 6.25436,3.12702 9.94215,1.21998 z m 66.13024,-118.75118 c 3.35995,-2.0487 4.9401,-6.82234 3.4495,-10.42096 -1.50204,-3.62625 -4.4538,-5.61432 -8.33581,-5.61432 -3.82069,0 -6.37441,1.52086 -8.07469,4.80884 -4.19038,8.10331 5.0114,16.07361 12.961,11.22644 z"
       id="path30"
       inkscape:connector-curvature="0" />
    <path
       style="fill:#a0a1a2;stroke-width:0.80000001"
       d="M 117.83731,268.96361 C 116.98818,268.42388 110.88574,254.0813 77.602666,174.40001 49.082584,106.12154 37.548578,78.530928 26.655839,52.529587 19.86552,36.320858 14.424921,22.460858 14.565621,21.729586 c 0.231222,-1.201744 2.757831,-1.349846 26.277539,-1.540302 19.996133,-0.161923 26.330301,0.02333 27.354343,0.8 0.732944,0.555894 7.787071,16.850717 15.675839,36.210718 C 91.76211,76.560003 103.34071,104.82 109.60356,120 c 6.26285,15.18 14.53903,35.34001 18.3915,44.80001 11.08878,27.22922 14.52399,35.2 15.17035,35.2 0.33152,0 1.52488,-2.43 2.65191,-5.4 1.12704,-2.97 4.28371,-11.16 7.01482,-18.2 2.73111,-7.04 10.11367,-26.12 16.40568,-42.40001 9.7927,-25.33771 26.39482,-67.573899 40.18543,-102.232683 l 3.75323,-9.432684 69.61176,0.279375 c 77.28073,0.310153 74.22091,0.109185 88.27049,5.797602 21.94924,8.886848 36.18626,24.755711 42.85452,47.766494 5.94971,20.531179 4.34771,45.262046 -4.10377,63.352076 -8.25995,17.68007 -21.82632,29.52714 -40.40949,35.28827 -5.54069,1.71772 -7,2.48295 -7,3.67068 0,0.82529 5.52973,10.23287 12.28829,20.90571 6.75856,10.67284 18.98814,29.9864 27.17685,42.91902 8.18872,12.93261 14.71456,23.7954 14.50187,24.13953 -0.55163,0.89255 -46.94302,0.94426 -49.28213,0.055 -1.36831,-0.52024 -7.05217,-8.75145 -19.21285,-27.82356 -26.418,-41.43247 -35.15379,-55.02942 -35.77128,-55.67674 -0.31059,-0.3256 -12.72587,-0.74115 -27.58951,-0.92345 -14.86364,-0.18231 -27.22272,-0.52939 -27.46461,-0.77128 -0.6104,-0.61039 15.86142,-36.61653 16.90673,-36.95683 0.46566,-0.15159 15.42664,-0.40688 33.24664,-0.56731 31.19723,-0.28086 32.59304,-0.35891 37.6,-2.10266 14.14259,-4.92534 22.72199,-15.59552 24.76686,-30.8025 2.49509,-18.555049 -5.04781,-36.078474 -18.48733,-42.949173 -7.41902,-3.792837 -8.83508,-3.893918 -55.40096,-3.954662 -24.15678,-0.03151 -44.19284,0.230061 -44.52456,0.581273 -0.61683,0.653072 -15.10507,34.820073 -31.14103,73.438572 -4.93305,11.88 -11.95917,28.8 -15.6136,37.6 -5.40601,13.01787 -20.32121,49.08974 -34.11713,82.51096 -1.57219,3.80871 -2.18828,6.38492 -1.8496,7.73428 0.38536,1.53544 0.11776,2.23204 -1.10982,2.88903 -1.87254,1.00215 -47.93382,1.21561 -49.48551,0.22933 z m 142.2642,-23.71479 c -4.17356,-1.3578 -7.65224,-4.47556 -9.87312,-8.84881 -0.89379,-1.76 -1.78996,-3.38 -1.99149,-3.6 -0.20154,-0.22 -8.33411,-0.58 -18.0724,-0.8 l -17.70597,-0.4 -1.13135,-2.01816 c -1.0626,-1.89551 -0.63258,-3.18394 7.0755,-21.2 17.61087,-41.16183 43.08407,-98.88805 44.11958,-99.98185 0.46551,-0.49171 9.91367,-0.85664 24.51755,-0.94698 13.0681,-0.0808 24.38018,-0.17084 25.13794,-0.2 0.86911,-0.0334 2.01859,-1.54264 3.11349,-4.08782 6.85534,-15.935653 29.43508,-13.746173 33.5123,3.24958 2.69964,11.25338 -5.76152,21.85895 -17.35604,21.75477 -6.2883,-0.0565 -11.10152,-2.69299 -14.6174,-8.00682 l -2.7699,-4.18635 -23.11662,0.21181 -23.11662,0.21181 -9.17933,20.8 c -5.04862,11.44001 -12.71968,28.90001 -17.04678,38.80001 -4.3271,9.9 -10.61575,24.26273 -13.97478,31.9172 -3.35902,7.65445 -5.92033,14.40445 -5.6918,15 0.3253,0.84772 3.18336,1.0828 13.1646,1.0828 h 12.74909 l 2.07545,-3.54149 c 3.61593,-6.17011 8.97866,-9.25851 16.07658,-9.25851 2.31253,0 5.49626,0.53969 7.07494,1.1993 10.836,4.52757 14.12748,19.68651 6.22859,28.68583 -3.72759,4.24689 -12.85966,6.22706 -19.20201,4.16368 z m 10.76252,-8.35736 c 1.3552,-0.8264 3.10668,-2.85685 3.89214,-4.51209 2.64886,-5.58207 -1.04714,-12.08778 -7.34734,-12.93281 -5.96979,-0.80072 -10.83531,3.41037 -10.75392,9.30746 0.0533,3.86076 1.8044,6.68023 5.18396,8.34668 3.39793,1.6755 6.03464,1.61437 9.02516,-0.20924 z m 66.01766,-118.7207 c 7.74128,-5.20939 4.62725,-16.27628 -4.83571,-17.18556 -3.72932,-0.35833 -4.19679,-0.1944 -6.76302,2.37184 -5.19694,5.19694 -4.31864,12.08236 1.94425,15.24172 3.7286,1.88093 6.39929,1.76253 9.65448,-0.428 z"
       id="path28"
       inkscape:connector-curvature="0" />
    <path
       style="fill:#2da1fc;stroke-width:0.80000001"
       d="m 117.78058,267.80001 c -0.6889,-0.84494 -19.966518,-46.5581 -32.97759,-78.2 -3.298408,-8.02149 -23.501244,-56.36377 -50.985291,-122.000008 -4.606061,-11 -10.694091,-25.551936 -13.528955,-32.337634 -2.834863,-6.785699 -4.984736,-12.779502 -4.777496,-13.319562 0.286768,-0.747304 6.476336,-0.983664 25.903964,-0.989191 14.039939,-0.004 25.905005,0.229809 26.366812,0.519562 0.461808,0.289753 6.499164,14.386824 13.41635,31.326825 6.917184,16.94 20.134576,49.159998 29.371986,71.599998 9.23741,22.44001 17.86865,43.50001 19.18053,46.80001 6.64665,16.71939 12.10256,28.8 13.00681,28.8 0.55576,0 1.93259,-2.43 3.05962,-5.4 1.12704,-2.97 4.28371,-11.16 7.01482,-18.2 2.73111,-7.04 10.11367,-26.12 16.40568,-42.40001 9.7927,-25.33771 26.39482,-67.573899 40.18543,-102.232683 l 3.75323,-9.432684 69.61176,0.279375 c 77.28073,0.310153 74.22091,0.109185 88.27049,5.797602 21.94924,8.886848 36.18626,24.755711 42.85452,47.766494 5.94971,20.531179 4.34771,45.262046 -4.10377,63.352076 -8.25995,17.68007 -21.82632,29.52714 -40.40949,35.28827 -5.54069,1.71772 -7,2.48295 -7,3.67068 0,0.82529 5.52973,10.23287 12.28829,20.90571 6.75856,10.67284 18.98814,29.9864 27.17685,42.91902 8.18872,12.93261 14.71456,23.7954 14.50187,24.13953 -0.55163,0.89255 -46.94302,0.94426 -49.28213,0.055 -1.36831,-0.52024 -7.05217,-8.75145 -19.21285,-27.82356 -26.418,-41.43247 -35.15379,-55.02942 -35.77128,-55.67674 -0.31059,-0.3256 -12.72587,-0.74115 -27.58951,-0.92345 -14.86364,-0.18231 -27.22272,-0.52939 -27.46461,-0.77128 -0.6104,-0.61039 15.86142,-36.61653 16.90673,-36.95683 0.46566,-0.15159 15.42664,-0.40688 33.24664,-0.56731 31.19723,-0.28086 32.59304,-0.35891 37.6,-2.10266 14.14259,-4.92534 22.72199,-15.59552 24.76686,-30.8025 2.49509,-18.555049 -5.04781,-36.078474 -18.48733,-42.949173 -7.41902,-3.792837 -8.83508,-3.893918 -55.40096,-3.954662 -24.15678,-0.03151 -44.19284,0.230061 -44.52456,0.581273 -0.61683,0.653072 -15.10507,34.820073 -31.14103,73.438572 -4.93305,11.88 -11.96007,28.8 -15.61559,37.6 -3.65552,8.8 -12.65932,30.58 -20.00844,48.4 -7.34913,17.82 -14.0431,33.97576 -14.8755,35.9017 -0.83239,1.92593 -1.51344,4.28393 -1.51344,5.24 0,3.56608 -0.64692,3.6583 -25.66205,3.6583 -18.02546,0 -23.93835,-0.24077 -24.55737,-1 z m 142.32093,-22.55119 c -4.17356,-1.3578 -7.65224,-4.47556 -9.87312,-8.84881 -0.89379,-1.76 -1.78996,-3.38 -1.99149,-3.6 -0.20154,-0.22 -8.33411,-0.58 -18.0724,-0.8 l -17.70597,-0.4 -1.13135,-2.01816 c -1.0626,-1.89551 -0.63258,-3.18394 7.0755,-21.2 17.61087,-41.16183 43.08407,-98.88805 44.11958,-99.98185 0.46551,-0.49171 9.91367,-0.85664 24.51755,-0.94698 13.0681,-0.0808 24.38018,-0.17084 25.13794,-0.2 0.86911,-0.0334 2.01859,-1.54264 3.11349,-4.08782 6.85534,-15.935653 29.43508,-13.746173 33.5123,3.24958 2.69964,11.25338 -5.76152,21.85895 -17.35604,21.75477 -6.2883,-0.0565 -11.10152,-2.69299 -14.6174,-8.00682 l -2.7699,-4.18635 -23.11662,0.21181 -23.11662,0.21181 -9.17933,20.8 c -5.04862,11.44001 -12.71968,28.90001 -17.04678,38.80001 -4.3271,9.9 -10.61575,24.26273 -13.97478,31.9172 -3.35902,7.65445 -5.92033,14.40445 -5.6918,15 0.3253,0.84772 3.18336,1.0828 13.1646,1.0828 h 12.74909 l 2.07545,-3.54149 c 3.61593,-6.17011 8.97866,-9.25851 16.07658,-9.25851 2.31253,0 5.49626,0.53969 7.07494,1.1993 10.836,4.52757 14.12748,19.68651 6.22859,28.68583 -3.72759,4.24689 -12.85966,6.22706 -19.20201,4.16368 z m 10.76252,-8.35736 c 1.3552,-0.8264 3.10668,-2.85685 3.89214,-4.51209 2.64886,-5.58207 -1.04714,-12.08778 -7.34734,-12.93281 -5.96979,-0.80072 -10.83531,3.41037 -10.75392,9.30746 0.0533,3.86076 1.8044,6.68023 5.18396,8.34668 3.39793,1.6755 6.03464,1.61437 9.02516,-0.20924 z m 66.01766,-118.7207 c 7.74128,-5.20939 4.62725,-16.27628 -4.83571,-17.18556 -3.72932,-0.35833 -4.19679,-0.1944 -6.76302,2.37184 -5.19694,5.19694 -4.31864,12.08236 1.94425,15.24172 3.7286,1.88093 6.39929,1.76253 9.65448,-0.428 z"
       id="path26"
       inkscape:connector-curvature="0" />
    <path
       style="fill:#5e6062;stroke-width:0.80000001"
       d="m 117.78058,267.80001 c -0.6889,-0.84494 -19.966518,-46.5581 -32.97759,-78.2 -3.298408,-8.02149 -23.501244,-56.36377 -50.985291,-122.000008 -4.606061,-11 -10.694091,-25.551936 -13.528955,-32.337634 -2.834863,-6.785699 -4.984736,-12.779502 -4.777496,-13.319562 0.286768,-0.747304 6.476336,-0.983664 25.903964,-0.989191 14.039939,-0.004 25.904198,0.229809 26.36502,0.519562 0.460822,0.289753 6.131398,13.486824 12.601278,29.326825 21.81786,53.415958 50.13926,122.310588 55.74285,135.600008 3.06123,7.26 11.541,28.21633 18.84392,46.56961 11.1218,27.95064 13.11223,33.56943 12.25693,34.60001 -0.87701,1.05673 -4.38075,1.23038 -24.82521,1.23038 -18.0751,0 -24.00031,-0.24067 -24.61942,-1 z"
       id="path24"
       inkscape:connector-curvature="0" />
    <path
       style="fill:#13181c;stroke-width:0.80000001"
       d="m 118.67161,267.42611 c -0.51062,-0.3476 -1.62608,-2.43068 -2.47883,-4.62906 C 114.16218,257.56211 22.441851,37.984644 17.669625,26.933677 16.751331,24.807198 16,22.917198 16,22.733677 16,22.550155 27.650087,22.400001 41.889081,22.400001 h 25.889081 l 2.434189,5.8 c 1.338804,3.19 6.461366,15.700001 11.383471,27.800001 14.152304,34.790593 52.428858,127.891288 61.011788,148.400008 4.73825,11.32194 24.65689,62.20115 24.42836,62.39864 -0.64998,0.56171 -47.56683,1.17038 -48.36436,0.62746 z"
       id="path22"
       inkscape:connector-curvature="0" />
  </g>
</svg>
